<?xml version="1.0" standalone="no"?>
<!DOCTYPE svg PUBLIC "-//W3C//DTD SVG 20010904//EN"
 "http://www.w3.org/TR/2001/REC-SVG-20010904/DTD/svg10.dtd">
<svg version="1.0" xmlns="http://www.w3.org/2000/svg"
 width="24.000000pt" height="24.000000pt" viewBox="0 0 24.000000 24.000000"
 preserveAspectRatio="xMidYMid meet">

<g transform="translate(0.000000,24.000000) scale(0.100000,-0.100000)"
fill="#000000" stroke="none">
<path d="M88 189 c-21 -22 -28 -40 -28 -69 0 -21 -4 -42 -10 -45 -27 -16 -3
-25 70 -25 73 0 97 9 70 25 -5 3 -10 24 -10 45 0 30 -7 46 -30 70 -16 16 -31
30 -32 29 -2 0 -15 -14 -30 -30z"/>
<path d="M30 180 c-7 -17 -10 -33 -6 -37 3 -3 7 -4 9 -2 27 45 35 69 23 69 -8
0 -19 -14 -26 -30z"/>
<path d="M188 178 c9 -18 18 -35 20 -37 1 -2 5 -1 8 2 10 10 -17 67 -32 67
-10 0 -9 -7 4 -32z"/>
<path d="M108 28 c9 -9 15 -9 24 0 9 9 7 12 -12 12 -19 0 -21 -3 -12 -12z"/>
</g>
</svg>
